<?xml version="1.0" encoding="UTF-8"?>
<svg width="20px" height="20px" viewBox="0 0 20 20" version="1.1" xmlns="http://www.w3.org/2000/svg" xmlns:xlink="http://www.w3.org/1999/xlink">
    <!-- Generator: Sketch 49 (51002) - http://www.bohemiancoding.com/sketch -->
    <title>dribbble</title>
    <desc>Created with Sketch.</desc>
    <defs></defs>
    <g id="Page-1" stroke="none" stroke-width="1" fill="none" fill-rule="evenodd" opacity="0.392946105">
        <g id="Desktop-Copy-19" transform="translate(-836.000000, -3670.000000)" fill="#FFFFFF" fill-rule="nonzero">
            <g id="dribbble" transform="translate(836.000000, 3670.000000)">
                <path d="M10,20 C4.484375,20 0,15.515625 0,10 C0,4.484375 4.484375,0 10,0 C15.515625,0 20,4.484375 20,10 C20,15.515625 15.515625,20 10,20 Z M18.43375,11.3675 C18.140625,11.27375 15.789375,10.574375 13.11375,11.004375 C14.23125,14.074375 14.68375,16.574375 14.77375,17.094375 C16.688125,15.7975 18.055,13.746875 18.43375,11.3675 Z M13.335625,17.875 C13.206875,17.125 12.714375,14.515625 11.515,11.398125 C11.495625,11.405625 11.475625,11.41 11.460625,11.4175 C6.64,13.0975 4.91,16.436875 4.7575,16.749375 C6.206875,17.878125 8.026875,18.55375 9.999375,18.55375 C11.183125,18.55375 12.311875,18.311875 13.335625,17.874375 L13.335625,17.875 Z M3.6525,15.7225 C3.848125,15.390625 6.191875,11.51125 10.59375,10.085625 C10.703125,10.050625 10.81625,10.015 10.93,9.984375 C10.715,9.5 10.480625,9.011875 10.23875,8.535 C5.976875,9.8125 1.83625,9.7575 1.46125,9.75375 C1.4575,9.839375 1.4575,9.925625 1.4575,10.015625 C1.4575,12.206875 2.289375,14.210625 3.6525,15.7225 Z M1.640625,8.261875 C2.023125,8.265625 5.543125,8.28125 9.53875,7.223125 C8.125,4.7075 6.5975,2.590625 6.370625,2.281875 C3.98,3.410625 2.190625,5.61375 1.64,8.2625 L1.640625,8.261875 Z M8,1.706875 C8.234375,2.023125 9.789375,4.136875 11.1875,6.706875 C14.226875,5.57 15.511875,3.839375 15.664375,3.620625 C14.15625,2.280625 12.1725,1.468125 10,1.468125 C9.3125,1.471875 8.640625,1.554375 8,1.70625 L8,1.706875 Z M16.613125,4.613125 C16.433125,4.855625 15,6.69125 11.84375,7.980625 C12.043125,8.386875 12.234375,8.80125 12.41,9.21875 C12.4725,9.3675 12.535,9.511875 12.59375,9.66 C15.4375,9.304375 18.261875,9.875 18.543125,9.93375 C18.52375,7.918125 17.800625,6.06625 16.61375,4.61375 L16.613125,4.613125 Z" id="Shape"></path>
            </g>
        </g>
    </g>
</svg>