<?xml version="1.0" encoding="UTF-8"?>
<svg width="20px" height="20px" viewBox="0 0 20 20" version="1.1" xmlns="http://www.w3.org/2000/svg" xmlns:xlink="http://www.w3.org/1999/xlink">
    <!-- Generator: Sketch 49 (51002) - http://www.bohemiancoding.com/sketch -->
    <title>instagram</title>
    <desc>Created with Sketch.</desc>
    <defs></defs>
    <g id="Page-1" stroke="none" stroke-width="1" fill="none" fill-rule="evenodd" opacity="0.392946105">
        <g id="Desktop-Copy-19" transform="translate(-835.000000, -3709.000000)" fill="#FFFFFF" fill-rule="nonzero">
            <g id="instagram" transform="translate(835.000000, 3709.000000)">
                <path d="M10.0056282,1.80153149 C12.6790069,1.80153149 12.9954349,1.81340835 14.0466512,1.86029067 C15.024076,1.90342241 15.5512476,2.067198 15.9033206,2.20409439 C16.3685823,2.38412252 16.7043962,2.6029067 17.0520918,2.95046101 C17.4041648,3.302391 17.6186605,3.63431786 17.8025139,4.09939053 C17.9394659,4.45132052 18.1033081,4.98202844 18.1464574,5.95530552 C18.1933588,7.01047039 18.2052404,7.32676981 18.2052404,9.99531177 C18.2052404,12.6638537 18.1933588,12.9839037 18.1464574,14.035318 C18.1033081,15.0123457 17.9394659,15.539303 17.8025139,15.891233 C17.6224126,16.3563057 17.4041648,16.6919831 17.0558439,17.0395374 C16.7037709,17.3914674 16.3717091,17.6058759 15.9070727,17.7896546 C15.5549997,17.926551 15.0234507,18.0903266 14.0504034,18.1334584 C12.9948096,18.1803407 12.6783816,18.1922175 10.0087549,18.1922175 C7.33912826,18.1922175 7.01894816,18.1803407 5.9671065,18.1334584 C4.9896817,18.0903266 4.46251016,17.926551 4.11043712,17.7896546 C3.64517541,17.6096265 3.30936152,17.3914674 2.96104059,17.043288 C2.60896754,16.691358 2.39447189,16.3594312 2.21061847,15.8949836 C2.07366644,15.5430536 1.90982428,15.0117206 1.866675,14.0390686 C1.81977362,12.9839037 1.80789194,12.6676043 1.80789194,9.99906235 C1.80789194,7.33052039 1.81977362,7.01047039 1.866675,5.9590561 C1.90982428,4.98202844 2.07366644,4.4550711 2.21061847,4.10314112 C2.39071978,3.63806845 2.6095929,3.302391 2.95728847,2.9542116 C3.30936152,2.60228161 3.6414233,2.38787311 4.10668501,2.20409439 C4.45875805,2.067198 4.9896817,1.90342241 5.96335439,1.86029067 C7.0145707,1.81340835 7.33162404,1.80153149 10.0050028,1.80153149 L10.0056282,1.80153149 Z M10.0056282,0.000625097672 C7.28910012,0.000625097672 6.94953411,0.0125019534 5.88205866,0.0593842788 C4.81896067,0.106266604 4.08792446,0.278168464 3.45506848,0.524456946 C2.79469702,0.781997187 2.23563254,1.12205032 1.68094553,1.68088764 C1.12188106,2.23597437 0.7816897,2.79418659 0.524044775,3.45053915 C0.277656182,4.08751367 0.105684448,4.81387717 0.0587830655,5.87654321 C0.0118816834,6.94733552 0,7.28676356 0,10.0021878 C0,12.7176121 0.0118816834,13.0570402 0.0587830655,14.1240819 C0.105684448,15.1867479 0.277656182,15.9174871 0.524044775,16.550086 C0.782315052,17.2101891 1.12188106,17.7690264 1.68094553,18.323488 C2.23563254,18.8779497 2.79469702,19.2223785 3.45131637,19.4761682 C4.08854981,19.7224566 4.81520855,19.8943585 5.87830655,19.9412408 C6.94515665,19.9881231 7.28534801,20 10.0018761,20 C12.7184041,20 13.0585955,19.9881231 14.1254456,19.9412408 C15.1885436,19.8943585 15.9195798,19.7224566 16.5524357,19.4761682 C17.2090551,19.2223785 17.7681196,18.8785748 18.3228066,18.323488 C18.8774936,17.7684013 19.2220624,17.2101891 19.4759552,16.5538365 C19.7223438,15.916862 19.8943156,15.1904985 19.9412169,14.1278325 C19.9881183,13.0614158 20,12.7213627 20,10.0059384 C20,7.29051414 19.9881183,6.95108611 19.9412169,5.88404438 C19.8943156,4.82137834 19.7223438,4.09063916 19.4759552,3.45804032 C19.2295666,2.79356149 18.8893753,2.23534927 18.3309362,1.68026254 C17.7762491,1.12580091 17.2171847,0.781372089 16.5605653,0.527582435 C15.9233319,0.281293952 15.1966731,0.109392093 14.1335751,0.0625097672 C13.0629729,0.0118768558 12.7227816,0 10.0062535,0 L10.0056282,0.000625097672 Z" id="Shape"></path>
                <path d="M10.5,5 C7.46392505,5 5,7.46325587 5,10.5 C5,13.5367441 7.46325587,16 10.5,16 C13.5367441,16 16,13.5367441 16,10.5 C16,7.46392505 13.5367441,5 10.5,5 Z M10.5,14.0674048 C8.52993065,14.0674048 6.93259521,12.4700694 6.93259521,10.5 C6.93259521,8.52993065 8.52993065,6.93259521 10.5,6.93259521 C12.4700694,6.93259521 14.0674048,8.52993065 14.0674048,10.5 C14.0674048,12.4700694 12.4700694,14.0674048 10.5,14.0674048 Z" id="Shape"></path>
                <path d="M16,4 C16,4.55237103 15.552371,5 15,5 C14.447629,5 14,4.55237103 14,4 C14,3.44762897 14.447629,3 15,3 C15.552371,3 16,3.44762897 16,4 Z" id="Shape"></path>
            </g>
        </g>
    </g>
</svg>