<?xml version="1.0" encoding="UTF-8"?>
<svg width="23px" height="18px" viewBox="0 0 23 18" version="1.1" xmlns="http://www.w3.org/2000/svg" xmlns:xlink="http://www.w3.org/1999/xlink">
    <!-- Generator: Sketch 49 (51002) - http://www.bohemiancoding.com/sketch -->
    <title>twitter</title>
    <desc>Created with Sketch.</desc>
    <defs></defs>
    <g id="Page-1" stroke="none" stroke-width="1" fill="none" fill-rule="evenodd" opacity="0.392946105">
        <g id="Desktop-Copy-19" transform="translate(-871.000000, -3670.000000)" fill="#FFFFFF" fill-rule="nonzero">
            <g id="twitter" transform="translate(871.000000, 3670.000000)">
                <path d="M22.1583788,2.12888254 C21.3449033,2.49235029 20.4663498,2.73466213 19.5490265,2.84266397 C20.4878117,2.2798082 21.2064394,1.38879297 21.5477529,0.328851775 C20.6691995,0.84809142 19.6957982,1.22886716 18.6614728,1.4324091 C17.8306894,0.549701704 16.6495923,0 15.342493,0 C12.8328347,0 10.7988,2.03403477 10.7988,4.54369305 C10.7988,4.89816065 10.8375699,5.24432041 10.915802,5.57801842 C7.13850663,5.38763055 3.78906477,3.57859963 1.54802646,0.827321834 C1.15825057,1.49817945 0.933939041,2.28119284 0.933939041,3.11197627 C0.933939041,4.68700319 1.73426041,6.07995008 2.95481974,6.89411784 C2.21057625,6.87265594 1.50994889,6.66496008 0.895169147,6.32710815 C0.895169147,6.34441614 0.895169147,6.36587804 0.895169147,6.38318603 C0.895169147,8.58545444 2.46188824,10.4249474 4.54300073,10.8396468 C4.16222499,10.9434948 3.75998735,10.9995726 3.34459563,10.9995726 C3.05035983,10.9995726 2.7692781,10.9691106 2.48819638,10.9171866 C3.06836014,12.7213713 4.74723499,14.0367784 6.73280739,14.0762406 C5.17508846,15.2961076 3.2192858,16.0237354 1.08624934,16.0237354 C0.718627668,16.0237354 0.359313834,16.0022735 0,15.9586574 C2.01672678,17.2526026 4.40453683,18.001 6.97096531,18.001 C15.3307236,18.001 19.9041864,11.0736508 19.9041864,5.06777893 C19.9041864,4.86908323 19.9000325,4.67384912 19.8910323,4.47930733 C20.7778936,3.84306569 21.5484453,3.04274432 22.1583788,2.12957486 L22.1583788,2.12888254 Z" id="Shape"></path>
            </g>
        </g>
    </g>
</svg>